<svg xmlns="http://www.w3.org/2000/svg" width="1200" height="700" viewBox="0 0 1200 700" role="img" aria-labelledby="title desc">
  <title id="title">Lord Ram Sunrise Artwork</title>
  <desc id="desc">Stylized devotional art with Lord Ram silhouette and sunrise.</desc>
  <defs>
    <linearGradient id="sky" x1="0" y1="0" x2="0" y2="1">
      <stop offset="0%" stop-color="#fff2cf"/>
      <stop offset="60%" stop-color="#ffd27f"/>
      <stop offset="100%" stop-color="#ef8c34"/>
    </linearGradient>
    <radialGradient id="sun" cx="50%" cy="35%" r="22%">
      <stop offset="0%" stop-color="#fff3b5"/>
      <stop offset="100%" stop-color="#ffb347" stop-opacity="0"/>
    </radialGradient>
  </defs>

  <rect width="1200" height="700" fill="url(#sky)"/>
  <rect width="1200" height="700" fill="url(#sun)"/>

  <circle cx="600" cy="250" r="100" fill="#ffd47e" opacity="0.9"/>
  <ellipse cx="600" cy="640" rx="560" ry="80" fill="#9e3d0c" opacity="0.35"/>

  <path d="M600 220 L545 325 L655 325 Z" fill="#5f2500" opacity="0.96"/>
  <rect x="575" y="325" width="50" height="170" rx="25" fill="#5f2500"/>
  <path d="M545 340 L500 445 L540 455 L575 370 Z" fill="#5f2500"/>
  <path d="M655 340 L700 455 L660 465 L625 370 Z" fill="#5f2500"/>
  <path d="M575 495 L535 615 L575 615 L603 515 Z" fill="#5f2500"/>
  <path d="M625 495 L665 615 L625 615 L597 515 Z" fill="#5f2500"/>

  <path d="M718 300 Q794 365 718 430" stroke="#5f2500" stroke-width="14" fill="none" stroke-linecap="round"/>
  <line x1="735" y1="365" x2="885" y2="365" stroke="#5f2500" stroke-width="6"/>
  <polygon points="885,365 860,353 860,377" fill="#5f2500"/>

  <text x="600" y="670" text-anchor="middle" font-family="Georgia, serif" font-size="42" fill="#fff4dd" opacity="0.95">Jai Shri Ram</text>
</svg>
